# xmcd CD database file
#
# Track frame offsets:
#	182
#	16340
#	35835
#	51982
#	68777
#	87995
#	107097
#	123247
#	140460
#	156037
#	172280
#	191840
#	209945
#	227727
#	244397
#	258602
#	271780
#	289810
#
# Disc length: 4077 seconds
#
# Revision: 1
# Processed by: cddbd v1.5.1PL0 Copyright (c) Steve Scherf et al.
# Submitted via: CDex 1.51
#
DISCID=1c0feb12
DTITLE=Various Artist - Gefühle - Vol.16 - Die schönsten romantischen Gefühle
DYEAR=1900
DGENRE=Oldies
TTITLE0=Mareille Mathieu - Lieben heißt für mich, mit dir zu leben
TTITLE1=Andy Borg - Am Anfang war die Liebe
TTITLE2=Nicole - Und dich hab ich geliebt
TTITLE3=Roger Whittaker - Leben mit dir
TTITLE4=Tina York - Es ging mir noch nie so gut
TTITLE5=Drafi Deutscher - Herz an Herz Gefühl
TTITLE6=Die Flippers - Nur wer die Sehnsucht kennt
TTITLE7=Purple Schulz - Sehnsucht
TTITLE8=Heinz Rudolf Kunze - Dein ist mein ganzes Herz
TTITLE9=De Bläck Föös - Katrin
TTITLE10=Hanne Haller - Streicheln macht Gänsehaut
TTITLE11=Wind - Herz aus Stein
TTITLE12=Cindy and Bert - Zeit für Zärtlichkeit
TTITLE13=Howard Carpendale - Lisa ist da
TTITLE14=Andrea Jürgens - Wenn ich nun geh'
TTITLE15=Stephan Remmler - Unter einer kleinen Decke in der Nacht
TTITLE16=Paola - Am Anfang einer neuen Liebe
TTITLE17=Costa Cordalis - Hast du Zeit für einen Traum
EXTD=
EXTT0=
EXTT1=
EXTT2=
EXTT3=
EXTT4=
EXTT5=
EXTT6=
EXTT7=
EXTT8=
EXTT9=
EXTT10=
EXTT11=
EXTT12=
EXTT13=
EXTT14=
EXTT15=
EXTT16=
EXTT17=
PLAYORDER=
